<?xml version="1.0"?><svg width="640" height="480" xmlns="http://www.w3.org/2000/svg">
 <title>black divider no background</title>
 <metadata id="metadata15">image/svg+xml</metadata>
 <g>
  <title>Layer 1</title>
  <path id="path2383" d="m130.424789,201.673798c5.347214,-5.150314 3.672729,-12.712738 -0.897858,-14.894531c-8.063118,-3.985718 -16.876259,4.332825 -12.837143,12.609238c4.031113,8.51915 14.122147,14.474594 27.859741,16.177536c29.803345,3.583694 88.753922,-18.49707 126.139771,-25.253815c27.772552,-5.019333 44.737732,2.522934 53.891937,10.876251c-18.814636,-9.070297 -35.962769,-5.915634 -53.610626,-3.688644c-40.492233,5.109711 -82.376175,26.804352 -126.758072,23.391907c-20.720802,-2.106766 -35.239151,-16.110321 -34.04528,-27.09108c0.106049,-0.9758 0.336189,-1.92775 0.697144,-2.845398c2.727554,-6.507568 7.519974,-9.17659 11.765518,-9.968216c11.540581,-2.151947 22.972786,12.163422 7.794868,20.686752z" stroke-width="1px" fill-rule="evenodd" fill="#ffaaaa"/>
  <path d="m121.048264,203.998413c-5.661949,-5.353226 -11.503189,-13.662064 -16.714989,-17.337494c-54.795155,-38.642105 -82.878897,13.562958 -54.779728,28.565475c4.335754,2.314987 13.320801,3.70459 19.757755,-5.512878c-7.876583,6.39917 -16.616638,4.202011 -20.227104,0.893311c-9.611256,-8.807739 -6.240768,-21.305283 5.062122,-27.012985c17.802998,-7.242203 33.883167,0.505432 47.954372,11.248962c10.049919,6.415955 12.629089,9.41011 20.726944,13.330566c-4.600662,0.203598 -2.183754,-6.238205 -6.561661,-9.261154l4.782288,5.086197l0,0l0,0z" id="path2390" stroke-width="1px" fill-rule="evenodd" fill="#ffaaaa"/>
  <path id="path2479" d="m488.403687,200.527008c-5.596466,5.086716 -3.843903,12.555984 0.939728,14.710892c8.438965,3.9366 17.663116,-4.279465 13.435669,-12.453812c-4.218903,-8.414139 -14.780548,-14.296158 -29.15863,-15.978043c-31.193024,-3.539551 -92.891907,18.268997 -132.020966,24.942474c-29.067291,4.957428 -46.823486,-2.491852 -56.404419,-10.742218c19.691803,8.958496 37.639313,5.842743 56.109955,3.643204c42.38028,-5.046707 86.21698,-26.473923 132.668091,-23.103546c21.686859,2.080765 36.882111,15.911713 35.632629,26.757111c-0.110992,0.963837 -0.351898,1.903976 -0.729675,2.810333c-2.854736,6.427338 -7.870575,9.0634 -12.314087,9.845322c-12.078613,2.125412 -24.043793,-12.013474 -8.158295,-20.431717z" stroke-width="1px" fill-rule="evenodd" fill="#ffaaaa"/>
  <path d="m489.534912,189.632965c6.671051,4.811661 13.553375,12.279907 19.694122,15.583511c64.56131,34.732758 97.650421,-12.190826 64.543121,-25.675659c-5.108521,-2.080688 -15.695007,-3.329636 -23.279175,4.955246c9.280396,-5.751785 19.578186,-3.776901 23.832214,-0.802948c11.32428,7.916687 7.353027,19.149872 -5.964172,24.280136c-20.976257,6.509506 -39.922363,-0.4543 -56.501556,-10.110931c-11.841278,-5.766861 -14.880096,-8.458099 -24.421112,-11.981934c5.420654,-0.182999 2.572968,5.607101 7.731232,8.324234l-5.634674,-4.571655z" id="path2481" stroke-width="1px" fill-rule="evenodd" fill="#ffaaaa"/>
 </g>
</svg>